# Blender3D v249 OBJ File: 
# www.blender3d.org
mtllib Sun.mtl
v 300.000000 1954.742310 -300.000061
v 300.000000 1954.742310 299.999939
v -300.000092 1954.742310 299.999939
v -299.999908 1954.742310 -300.000153
v -299.999908 1945.257446 -300.000153
v -300.000092 1945.257446 299.999939
v 300.000000 1945.257446 299.999939
v 300.000000 1945.257446 -300.000061
vt 0.000000 0.000000
vt 1.000000 0.000000
vt 1.000000 1.000000
vt 0.000000 1.000000
vt 0.009827 0.005987
vt 0.030172 0.005987
vt 0.030172 0.026332
vt 0.009827 0.026332
vt 0.010142 0.007582
vt 0.032418 0.007582
vt 0.032418 0.029858
vt 0.010142 0.029858
vt 0.012696 0.010136
vt 0.045224 0.010136
vt 0.045224 0.042664
vt 0.012696 0.042664
vt 0.005387 0.006667
vt 0.016693 0.006667
vt 0.016693 0.017973
vt 0.005387 0.017973
vn 0.000000 1.000000 0.000000
vn 0.000000 -1.000000 0.000000
vn 0.000000 0.000000 -1.000000
vn -1.000000 0.000000 -0.000000
vn 0.000000 0.000000 1.000000
vn 1.000000 0.000000 0.000000
usemtl None_Sun.png_Sun.png_Sun.png
s off
f 1/1/1 4/2/1 3/3/1
f 1/1/1 3/3/1 2/4/1
f 6/4/2 5/1/2 8/2/2
f 7/3/2 6/4/2 8/2/2
f 4/5/3 1/6/3 8/7/3
f 4/5/3 8/7/3 5/8/3
f 3/9/4 4/10/4 5/11/4
f 3/9/4 5/11/4 6/12/4
f 2/13/5 3/14/5 6/15/5
f 2/13/5 6/15/5 7/16/5
f 1/17/6 2/18/6 7/19/6
f 1/17/6 7/19/6 8/20/6
