# Blender3D v249 OBJ File: 
# www.blender3d.org
mtllib Skybox.mtl
v 100.000000 -100.000008 -99.999992
v 100.000000 -99.999992 100.000008
v -100.000015 -99.999992 99.999985
v -99.999962 -100.000008 -100.000031
v 100.000046 99.999992 -99.999962
v 99.999939 100.000008 100.000053
v -100.000038 100.000008 99.999954
v -99.999985 99.999992 -100.000008
vt 0.250977 0.001302
vt 0.499023 0.001302
vt 0.499023 0.333333
vt 0.250977 0.333333
vt 0.499023 0.666667
vt 0.499023 0.998698
vt 0.250977 0.998698
vt 0.250977 0.666667
vt 0.500000 0.334635
vt 0.750000 0.334635
vt 0.750000 0.665365
vt 0.500000 0.665365
vt 1.000000 0.334635
vt 1.000000 0.665365
vt 0.000000 0.334635
vt 0.250000 0.334635
vt 0.250000 0.665365
vt 0.000000 0.665365
vn 0.000000 1.000000 -0.000000
vn -0.000000 -1.000000 0.000000
vn -1.000000 -0.000000 -0.000000
vn 0.000000 0.000000 -1.000000
vn 1.000000 0.000000 0.000000
vn -0.000000 -0.000000 1.000000
usemtl Material_Skybox.jpg
s off
f 1/1/1 4/2/1 3/3/1 2/4/1
f 5/5/2 6/6/2 7/7/2 8/8/2
f 1/9/3 2/10/3 6/11/3 5/12/3
f 2/10/4 3/13/4 7/14/4 6/11/4
f 3/15/5 4/16/5 8/17/5 7/18/5
f 4/16/6 1/9/6 5/12/6 8/17/6
